<?xml version="1.0" standalone="no"?><!DOCTYPE svg PUBLIC "-//W3C//DTD SVG 1.1//EN" "http://www.w3.org/Graphics/SVG/1.1/DTD/svg11.dtd"><svg class="icon" width="200px" height="200.00px" viewBox="0 0 1024 1024" version="1.1" xmlns="http://www.w3.org/2000/svg"><path d="M871.862857 941.714286c82.102857-88.137143 132.571429-206.445714 132.571429-336.091429 0-272.274286-221.44-493.714286-493.714286-493.714286s-493.714286 221.44-493.714286 493.714286c0 129.828571 50.468571 247.954286 132.571429 336.091429h722.285714z m-150.674286-89.965715c-30.354286 0-54.857143-24.502857-54.857142-54.857142s24.502857-54.857143 54.857142-54.857143 54.857143 24.502857 54.857143 54.857143-24.502857 54.857143-54.857143 54.857142z m115.382858-291.474285a54.857143 54.857143 0 0 1 0 77.531428c-21.394286 21.394286-56.137143 21.394286-77.531429 0s-21.394286-56.137143 0-77.531428 56.137143-21.577143 77.531429 0z m-124.525715-210.285715c30.354286 0 54.857143 24.502857 54.857143 54.857143s-24.502857 54.857143-54.857143 54.857143-54.857143-24.502857-54.857143-54.857143 24.502857-54.857143 54.857143-54.857143z m-36.937143 147.931429l-138.971428 134.034286-50.834286-52.662857 138.971429-134.034286 50.834285 52.662857z m-199.862857-208.457143a54.857143 54.857143 0 0 1 77.531429 0 54.857143 54.857143 0 0 1 0 77.531429 54.857143 54.857143 0 0 1-77.531429 0 54.857143 54.857143 0 0 1 0-77.531429z m-146.285714 571.611429c-30.354286 0-54.857143-24.502857-54.857143-54.857143s24.502857-54.857143 54.857143-54.857143 54.857143 24.502857 54.857143 54.857143-24.502857 54.857143-54.857143 54.857143z m-9.142857-501.942857c30.354286 0 54.857143 24.502857 54.857143 54.857142s-24.502857 54.857143-54.857143 54.857143-54.857143-24.502857-54.857143-54.857143c0-30.171429 24.502857-54.857143 54.857143-54.857142z m-115.382857 214.125714a54.857143 54.857143 0 0 1 77.531428 0 54.857143 54.857143 0 0 1 0 77.531428 54.857143 54.857143 0 0 1-77.531428 0 54.857143 54.857143 0 0 1 0-77.531428z" fill="#4C4C4C" /></svg>